<?xml version="1.0" encoding="utf-8"?>
<!-- Generator: Adobe Illustrator 21.1.0, SVG Export Plug-In . SVG Version: 6.00 Build 0)  -->
<svg version="1.1" id="Layer_1" xmlns="http://www.w3.org/2000/svg" xmlns:xlink="http://www.w3.org/1999/xlink" x="0px" y="0px"
	 viewBox="0 0 538 538" style="enable-background:new 0 0 538 538;" xml:space="preserve">
<style type="text/css">
	.st0{opacity:0.1;}
	.st1{fill:#058EC4;}
</style>
<title>Helm</title>
<desc>Created with Sketch.</desc>
<g id="Page-1" class="st0">
	<path id="Helm" class="st1" d="M386.2,369.4c22.7-25.6,36.2-64.3,38.8-92h9.3c-2.3,34.7-16.5,71.5-40.8,99.1L386.2,369.4z
		 M286.7,422.4c34.7-2.3,61.8-15.3,87.5-37.2l9.2,7.5c-27.5,24.2-62,38.4-96.7,40.8V422.4z M170.5,384.9
		c25.7,22.2,60.7,35.2,95.3,37.5v11c-41.6-2.4-73.2-16.7-100.8-41.1L170.5,384.9z M112.5,277.4c2.6,27.7,16,66.1,38.5,91.7l-7.3,7.1
		c-24.7-28.3-38.2-64.1-40.4-98.8H112.5z M149.6,164.2c-22.3,26-35.3,57.7-37.3,92.4h-9c2.4-41.6,16-69.9,40.7-98L149.6,164.2z
		 M265.9,109.7c-34.7,2.4-71,15.9-96.9,38.9l-3.5-5.5c27.6-24.2,58.9-38.4,100.5-40.8V109.7z M375.8,148.3
		c-25.9-22.8-54.4-36.3-89.1-38.6v-7.4c34.7,2.4,68.9,16.5,96.4,40.5L375.8,148.3z M323,256.6c-1.4-13.9-4.1-13.8-8.2-19.9
		l57.3-57.3c18.4,21.8,29.2,42.5,31.2,77.2H323z M314.7,297.9c4.1-6.2,6.9-13.5,8.3-20.5h80.1c-2.5,27.7-13.8,54.8-32.4,76.3
		L314.7,297.9z M286.7,321.7c6.9-1.4,10.1-4.1,16-8l57.7,56c-21.4,17.9-46,28.6-73.7,30.8V321.7z M242,313.4c6,4,16.9,6.8,23.9,8.3
		v78.8c-27.7-2.2-56.3-13-77.8-31.1L242,313.4z M214.5,277.4c1.4,6.9,4.1,14,8.1,20.1l-56.1,55.9c-18.4-21.4-29.6-48.2-32.1-75.9
		H214.5z M222.5,237.1c-3.9,6-6.6,5.7-8,19.5h-80.3c2-34.7,12.7-55.1,30.9-76.9L222.5,237.1z M265.9,213.1c-6.9,1.4-18,4.3-24,8.4
		l-55.4-57.4c21.8-18.9,51.7-30.2,79.4-32.5V213.1z M302.8,221.2c-6-4-9.2-6.7-16.1-8.1v-81.5c27.7,2.3,53.6,13.5,75.3,32.2
		L302.8,221.2z M268.8,300.9c-9,0-17.4-3.5-23.7-9.8c-13.1-13.1-13.1-34.3,0-47.4c6.3-6.3,14.7-9.8,23.7-9.8c9,0,17.4,3.5,23.7,9.8
		c13.1,13.1,13.1,34.3,0,47.4C286.1,297.4,277.7,300.9,268.8,300.9L268.8,300.9z M425.2,256.6c-2.1-34.7-15.2-66.7-37.6-92.7
		l5.7-5.6c24.3,27.5,38.6,56.8,41,98.4H425.2z M518.8,249.7h-46.2c-0.4,0-0.8,0.2-1.2,0.2c-3.5-40-18.7-79-45.8-111.7
		c0.2-0.2,0.4-0.3,0.5-0.5l32.7-32.6c7.3-7.3,7.3-19.2,0-26.5c-7.3-7.3-19.2-7.3-26.5,0l-32.7,32.7c-0.2,0.1-0.3,0.3-0.4,0.5
		C366.7,84.5,330.6,69,290.5,65.3c0-0.1,3.1-0.3,3.1-0.4V18.7C293.6,8.4,283.2,0,272.8,0C262.5,0,252,8.4,252,18.7v46.2
		c0,0.1-1,0.3-1,0.4c-40,3.7-79.7,19.2-112.3,46.5c-0.1-0.1-0.5-0.3-0.7-0.5l-32.8-32.7c-7.3-7.3-19.2-7.3-26.5,0
		c-7.3,7.3-7.3,19.2,0,26.5l32.7,32.7c0.2,0.2,0.4,0.3,0.5,0.5C84.9,171,69.6,210,66.2,249.9c-0.4,0-0.8-0.2-1.2-0.2H18.7
		C8.4,249.7,0,256.7,0,267s8.4,17.3,18.7,17.3h46.2c0.5,0,0.9,1.5,1.4,1.5c3.8,39.8,19.3,79.4,46.5,111.8c-0.5,0.4-1,1.2-1.4,1.7
		l-32.7,32.9c-7.3,7.3-7.3,19.3,0,26.6c3.7,3.7,8.4,5.5,13.2,5.5s9.6-1.8,13.2-5.5l32.7-32.7c0.5-0.5,0.9-1,1.3-1.5
		c32.5,26.9,72.3,42.1,112,45.7c-0.1,0.7,0.8,1.5,0.8,2.2v46.2c0,10.3,10.5,18.7,20.8,18.7c10.3,0,20.8-8.4,20.8-18.7v-46.2
		c0-0.7-3.1-1.5-3.2-2.2c39.7-3.6,77-18.9,109.5-45.7c0.4,0.5,0.1,1,0.6,1.5l32.3,32.7c3.7,3.7,8.3,5.5,13,5.5s9.5-1.8,13.1-5.5
		c7.3-7.3,7.3-19.2,0-26.5l-32.7-32.7c-0.5-0.5-0.9-0.9-1.4-1.3c27.2-32.4,42.7-72.8,46.5-112.5c0.5,0,0.9-1.5,1.4-1.5h46.2
		c10.3,0,18.7-7,18.7-17.3S529.2,249.7,518.8,249.7L518.8,249.7z"/>
</g>
</svg>
