<?xml version="1.0" encoding="utf-8"?>
<!-- Generator: Adobe Illustrator 21.1.0, SVG Export Plug-In . SVG Version: 6.00 Build 0)  -->
<svg version="1.1" id="Layer_1" xmlns="http://www.w3.org/2000/svg" xmlns:xlink="http://www.w3.org/1999/xlink" x="0px" y="0px"
	 viewBox="0 0 598 303" style="enable-background:new 0 0 598 303;" xml:space="preserve">
<style type="text/css">
	.st0{opacity:0.1;}
	.st1{fill:#058EC4;}
	.st2{fill:none;stroke:#058EC4;stroke-linecap:square;}
</style>
<title>Fish Faded</title>
<desc>Created with Sketch.</desc>
<g id="Page-1" class="st0">
	<g id="Fish-Faded">
		<g id="Group-2">
			<path id="Fill-49" class="st1" d="M473.9,144.1c-2.7,2.5-6.1,3.8-9.7,3.8c-4,0-7.7-1.6-10.5-4.5c-5.4-5.8-5.1-14.8,0.7-20.2
				c2.7-2.5,6.1-3.8,9.7-3.8c4,0,7.7,1.6,10.5,4.5c2.6,2.8,4,6.4,3.8,10.2C478.3,138,476.6,141.5,473.9,144.1 M464.1,98
				c-9.1,0-17.7,3.4-24.3,9.6c-14.4,13.4-15.2,36-1.8,50.4c6.7,7.2,16.3,11.3,26.1,11.3c9.1,0,17.7-3.4,24.3-9.6
				c7-6.5,11-15.3,11.3-24.8c0.3-9.5-3.1-18.6-9.6-25.6C483.5,102.2,474,98,464.1,98"/>
			<path id="Fill-50" class="st1" d="M409.2,256.6V47.8c33.9,9.5,65.8,26.3,95.8,50.3c24.8,19.8,42.2,39.9,50.9,51.3
				C539.1,173.1,490.5,233.1,409.2,256.6L409.2,256.6z M142.4,189c-0.4-0.3-20.4-15.5-43.1-42.2c23.1-27.4,43.8-43,44.2-43.3
				l0.9-0.7c35.5-29.6,107.4-64.2,193.6-64.2c16.5,0,34.1,1.5,49.9,4.4c-0.3,1,1,2.2,1,3.3v215.4c-13.6,2.8-31.9,4.5-48.4,4.5
				C280.1,266.1,210.7,239.4,142.4,189L142.4,189z M592,139.2c-0.9-1.4-22.4-35.2-64.2-69C472.3,25.4,406.6,1.7,337.9,1.7
				c-95.5,0-174.4,37.3-216.6,72.4c-3.6,2.7-22.7,17.5-44.9,42.5C58.3,89.2,42,55.1,36.4,15.8C35,5.8,25.7-1.3,15.7,0.2
				C5.7,1.6-1.2,11,0.2,21c7.2,50.6,29.1,93.2,52.4,125.8C29.6,179.2,8.2,221.2,1.1,271.2c-1.4,10.1,5.5,19.4,15.5,20.9
				c10,1.4,19.3-5.6,20.7-15.6c5.5-38.6,21.4-72.3,39.3-99.4c22.9,25.7,42.3,40.3,44.1,41.7c74.6,55.2,150.1,84.4,218.1,84.4
				c69.2,0,135-24.9,190.2-72.1c41.5-35.5,62.5-71,63.3-72.4c0,0,5.7-4.9,5.7-9.7S592,139.2,592,139.2z"/>
			<path id="Line" class="st2" d="M392.7,39v233.9"/>
		</g>
	</g>
</g>
</svg>
