<?xml version="1.0" encoding="utf-8"?>
<!-- Generator: Adobe Illustrator 21.1.0, SVG Export Plug-In . SVG Version: 6.00 Build 0)  -->
<svg version="1.1" id="Layer_1" xmlns="http://www.w3.org/2000/svg" xmlns:xlink="http://www.w3.org/1999/xlink" x="0px" y="0px"
	 viewBox="0 0 259 325" style="enable-background:new 0 0 259 325;" xml:space="preserve">
<style type="text/css">
	.st0{fill:#058EC4;}
</style>
<title>Flag</title>
<desc>Created with Sketch.</desc>
<path id="Fill-45" class="st0" d="M24,9.9C22.8,3.3,16.5-1,9.9,0.2C3.3,1.4-1,7.7,0.2,14.2L56,315.1c1.1,5.8,6.2,9.9,11.9,9.9
	c0.7,0,1.5-0.1,2.2-0.2c6.6-1.2,10.9-7.5,9.7-14L24,9.9z"/>
<path id="Fill-46" class="st0" d="M86.6,170.1L63.4,44.2L215.9,81L86.6,170.1z M250.9,64.6L33,12l36.7,199L254.4,83.7
	C262,78.5,259.8,66.8,250.9,64.6L250.9,64.6z"/>
</svg>
